<svg xmlns="http://www.w3.org/2000/svg" version="1.0" viewBox="0 0 512 512">
  <style>
    path {
      fill: #010101;
    }
    @media (prefers-color-scheme: dark) {
      path {
        fill: white;
      }
    }
  </style>
  <path d="M359 383H81c-3 0-5-1-7-4L5 259c-2-3-2-5 0-8l13-23c1-2 3-3 5-3h463c5 0 7 1 9 5l12 22c2 2 2 4 0 6l-15 27c-2 3-4 5-9 5l-218-1H102l16 29c1 2 3 2 4 2h350l-20 35-67 114c-2 4-4 5-8 5H135c-3 0-5 1-7-2l-34-59h242c4 0 7-1 9-5l14-25zM37 195l65-112 23-41c2-3 4-4 8-4h246c3 0 5 0 6 2l35 61H174c-4 0-6 1-8 5l-14 25h280c4 0 7 1 9 5l33 59H37z"/>
</svg>
